<svg xmlns="http://www.w3.org/2000/svg" viewBox="0 0 32 32" id="Order">
  <path d="M25 5.24h-1a1 1 0 0 0 0 2h1v21H7v-21h1a1 1 0 0 0 0-2H7a2 2 0 0 0-2 2v21a2 2 0 0 0 2 2h18a2 2 0 0 0 2-2v-21a2 2 0 0 0-2-2Z" fill="#ffffff" class="color000000 svgShape"></path>
  <path d="M11 17.24h10a1 1 0 0 0 0-2H11a1 1 0 0 0 0 2zm0-4h10a1 1 0 0 0 0-2H11a1 1 0 0 0 0 2zm0 8h10a1 1 0 0 0 0-2H11a1 1 0 0 0 0 2zm0 4h10a1 1 0 0 0 0-2H11a1 1 0 0 0 0 2zm1.33-16.42c.75-.19.81-.93.66-1.58h6c-.2.76 0 1.59.92 1.63s1.12-1.26 1.13-2a5.06 5.06 0 1 0-10.12 0c-.01.82.22 2.23 1.41 1.95zM16 3.76a3.06 3.06 0 0 1 2.61 1.48h-5.22A3.06 3.06 0 0 1 16 3.76z" fill="#ffffff" class="color000000 svgShape"></path>
</svg>
