<svg xmlns="http://www.w3.org/2000/svg" viewBox="0 0 32 32" id="Order">
  <path fill="#ffffff" d="M25 5.22h-4.2c.31 1 .67 3.48-.87 3.63a1 1 0 0 1-1-1.26 3.1 3.1 0 0 0-.34-2.37h-5.21A3.08 3.08 0 0 0 13 7.58a1 1 0 0 1-.71 1.22c-1.81.28-1.47-2.5-1.13-3.58H7a2 2 0 0 0-2 2v21a2 2 0 0 0 2 2h18a2 2 0 0 0 2-2v-21a2 2 0 0 0-2-2Zm-4 20H11a1 1 0 0 1 0-2h10a1 1 0 0 1 0 2Zm0-4H11a1 1 0 0 1 0-2h10a1 1 0 0 1 0 2Zm0-4H11a1 1 0 0 1 0-2h10a1 1 0 0 1 0 2Zm0-4H11a1 1 0 0 1 0-2h10a1 1 0 0 1 0 2Zm-7.62-8H11.2a5.07 5.07 0 0 1 9.6 0h-2.18a3.06 3.06 0 0 0-5.24 0Z" class="color1e1fc0 svgShape"></path>
</svg>
